<svg xmlns="http://www.w3.org/2000/svg" width="4096" height="4096">
    <g transform="matrix(13.65333 0 0 13.65333 2048 2048)">
        <path fill="#d2d2d2"
              d="M146.77 0c0-81.06-65.71-146.77-146.77-146.77-81.06 0-146.77 65.71-146.77 146.77 0 81.06 65.71 146.77 146.77 146.77 81.06 0 146.77-65.71 146.77-146.77Z"/>
        <path fill="#828282" d="M73.44 4.45h73.33v-9H30.79v.05h-177.56v9H73.44v-.05Z"/>
        <path fill="#828282"
              d="M141.87 1.14c.63-78.36-62.38-142.38-140.73-143.01-78.36-.63-142.38 62.38-143.01 140.73-.63 78.36 62.38 142.38 140.73 143.01 78.36.63 142.38-62.38 143.01-140.73Z"/>
        <path fill="#fff"
              d="M138.08 0c0-76.26-61.82-138.08-138.08-138.08-76.26 0-138.08 61.82-138.08 138.08 0 76.26 61.82 138.08 138.08 138.08 76.26 0 138.08-61.82 138.08-138.08Z"/>
        <defs>
            <filter id="a" width="141%" height="140.08%" x="-13.79%" y="-12.87%" filterUnits="objectBoundingBox">
                <feOffset dx="-.12" dy=".49" in="SourceAlpha" result="shadowOffsetOuter1"/>
                <feGaussianBlur in="shadowOffsetOuter1" result="shadowBlurOuter1" stdDeviation="4.48"/>
                <feFlood flood-color="#323232" flood-opacity=".47"/>
                <feComposite in2="shadowBlurOuter1" operator="in"/>
                <feMerge>
                    <feMergeNode/>
                    <feMergeNode in="SourceGraphic"/>
                </feMerge>
            </filter>
        </defs>
        <path fill="#fff" stroke="#828282" stroke-linecap="square" stroke-width="2.52"
              d="M31.7-63.57a31.7 31.7 0 1 0-63.4 0 31.7 31.7 0 0 0 63.4 0Z" filter="url(#a)"/>
        <path fill="#828282"
              d="M-51.3 38.15h2.93l1-2.55h4.7l1.03 2.55h3l-5.25-12.06h-2.2l-5.21 12.06Zm7.72-4.8h-2.95l1.47-3.75 1.48 3.75Zm13.8-3.48h-2.55V34c0 .27-.02.53-.06.78-.03.25-.1.47-.2.67-.12.2-.27.36-.48.48-.2.12-.47.18-.8.18-.33 0-.58-.07-.76-.2-.17-.14-.3-.32-.39-.53a2.34 2.34 0 0 1-.15-.71l-.03-.74v-4.06h-2.55v4.57c0 .56.03 1.07.1 1.55.08.48.23.9.45 1.24.22.36.53.63.94.83.4.2.93.3 1.57.3a2.91 2.91 0 0 0 2.07-.85c.15-.16.26-.32.35-.48h.04v1.12h2.45v-8.28Zm7.45 0h-2.25v-2.45h-2.56v2.45h-1.63v2.05h1.63v3.93c0 .46.08.84.23 1.16.16.32.37.58.64.78.27.2.6.34.96.43.36.1.76.14 1.19.14.3 0 .6-.02.9-.05.3-.04.6-.1.89-.2v-2.14a.91.91 0 0 1-.5.2c-.23.03-.4.04-.54.04-.27 0-.5-.04-.66-.11a.78.78 0 0 1-.36-.32c-.08-.13-.13-.3-.16-.48a5.2 5.2 0 0 1-.03-.62v-2.76h2.25v-2.05Zm.99 4.14a4.12 4.12 0 0 0 2.8 4.04 5.22 5.22 0 0 0 3.6 0 4.12 4.12 0 0 0 2.8-4.04 4.12 4.12 0 0 0-2.8-4.04 5.22 5.22 0 0 0-3.6 0 4.12 4.12 0 0 0-2.8 4.04Zm2.55 0c0-.62.18-1.13.54-1.51.36-.4.86-.58 1.5-.58.66 0 1.16.19 1.52.58.35.38.53.89.53 1.51 0 .63-.18 1.13-.53 1.52-.36.39-.86.58-1.51.58s-1.15-.2-1.51-.58c-.36-.39-.54-.9-.54-1.52Zm12.1 4.14h2.13L.42 26.1h-2.85l-3.03 7.9h-.04l-2.98-7.9h-3.03l4.82 12.06Zm13.24 0H8.9v-4.2c0-.7-.05-1.3-.17-1.84a3.18 3.18 0 0 0-.6-1.34 2.69 2.69 0 0 0-1.16-.82 5.17 5.17 0 0 0-1.85-.28c-.68 0-1.34.1-1.98.33a4.7 4.7 0 0 0-1.67 1l1.37 1.4c.27-.31.58-.55.93-.73a2.5 2.5 0 0 1 1.15-.26c.44 0 .82.13 1.15.4.32.26.48.62.48 1.08l-1.15.01c-.41.02-.83.05-1.24.1-.42.06-.82.15-1.2.27-.39.12-.73.29-1.03.5-.3.22-.54.5-.72.82-.18.33-.26.73-.26 1.21 0 .42.08.8.23 1.1.16.33.38.6.65.81.27.22.59.38.95.49a3.84 3.84 0 0 0 2.6-.13c.48-.2.85-.51 1.14-.96h.03v1.04Zm0-3.63v.55a1.37 1.37 0 0 1-.6 1.16c-.18.12-.38.22-.62.29-.23.07-.47.1-.72.1-.28 0-.56-.07-.82-.22a.73.73 0 0 1-.39-.68c0-.29.1-.5.28-.67.19-.16.42-.28.68-.36.27-.08.55-.12.84-.14l.72-.03h.63Zm11.25-3.75c-.4-.4-.87-.7-1.4-.86a5.28 5.28 0 0 0-3.35.06 4.12 4.12 0 0 0-2.8 4.04 4.12 4.12 0 0 0 2.8 4.04 5.22 5.22 0 0 0 3.34.06c.54-.16 1.01-.45 1.4-.86l-1.68-1.77c-.15.17-.32.32-.53.44-.2.13-.45.19-.73.19-.65 0-1.15-.2-1.5-.58-.37-.39-.54-.9-.54-1.52s.17-1.13.53-1.51c.36-.4.86-.58 1.51-.58a1.55 1.55 0 0 1 1.26.63l1.69-1.78Zm8.9-.9h-2.56V34c0 .27-.02.53-.05.78-.04.25-.1.47-.22.67-.1.2-.26.36-.46.48s-.48.18-.8.18c-.34 0-.59-.07-.76-.2-.18-.14-.31-.32-.4-.53a2.34 2.34 0 0 1-.15-.71c-.02-.26-.02-.5-.02-.74v-4.06h-2.56v4.57c0 .56.04 1.07.11 1.55s.22.9.44 1.24c.22.36.54.63.94.83.4.2.93.3 1.58.3a2.91 2.91 0 0 0 2.07-.85c.14-.16.26-.32.35-.48h.03v1.12h2.45v-8.28Zm9.78 0h-2.56V34c0 .27-.02.53-.05.78-.04.25-.1.47-.21.67-.11.2-.27.36-.47.48-.2.12-.47.18-.8.18-.33 0-.59-.07-.76-.2-.18-.14-.3-.32-.4-.53a2.34 2.34 0 0 1-.15-.71l-.02-.74v-4.06H28.5v4.57c0 .56.04 1.07.11 1.55s.22.9.44 1.24c.23.36.54.63.94.83.4.2.93.3 1.58.3a2.91 2.91 0 0 0 2.07-.85c.14-.16.26-.32.35-.48h.03v1.12h2.46v-8.28Zm1.8 8.28h2.56v-4.12c0-.27.01-.53.05-.78.03-.25.1-.48.21-.68.11-.2.27-.36.47-.47.2-.12.47-.18.8-.18.3 0 .52.06.67.2.16.14.27.3.34.5.06.19.1.4.12.6l.01.55v4.38h2.56v-4.38c0-.25.02-.48.08-.71.05-.23.13-.43.25-.6.12-.17.28-.3.48-.4.2-.1.44-.14.74-.14.42 0 .71.14.88.41.16.28.24.61.24 1v4.82h2.56v-4.89c0-.5-.05-.97-.14-1.4-.1-.44-.26-.82-.48-1.14a2.3 2.3 0 0 0-.9-.77 3.16 3.16 0 0 0-1.41-.28c-.61 0-1.13.11-1.55.34-.42.23-.78.6-1.07 1.14a2.27 2.27 0 0 0-1.02-1.13 3.23 3.23 0 0 0-3.1.07 2.48 2.48 0 0 0-.86.9h-.03v-1.12h-2.46v8.28Z"/>
        <path fill="#484848"
              d="M-6.4 63.77h2.83l3.41-8.63h-2.68L-4.87 61h-.03l-2.19-5.86h-2.87l3.57 8.63Zm12.2 0h2.55v-2.52h1.61v-2.24H8.35V51.2H5.44L.3 59v2.24h5.5v2.52Zm0-4.76H2.96l2.79-4.33h.03v4.33Z"/>
    </g>
</svg>