<?xml version="1.0" encoding="utf-8" ?>    <!-- Generator: Assembly 2.4 - http://assemblyapp.co -->
<svg version="1.1" xmlns="http://www.w3.org/2000/svg"
     width="2000.00" height="2000.00" viewBox="0 0 2000.0 2000.0">
    <g id="document" transform="scale(6.666666666666667 6.666666666666667) translate(150.0 150.0)">
        <g>
            <path d="M146.767,0 C146.767,-81.057 81.057,-146.767 0,-146.767 C-81.057,-146.767 -146.767,-81.057 -146.767,0 C-146.767,81.057 -81.057,146.767 0,146.767 C81.057,146.767 146.767,81.057 146.767,0 Z "
                  fill="#d2d2d2" fill-opacity="1.00"/>
            <path d="M73.4416,4.44716 L146.767,4.44715 L146.767,-4.55058 L30.7934,-4.55057 L30.7934,-4.49887 L-30.7934,-4.49886 L-30.7934,-4.49887 L-146.767,-4.49886 L-146.767,4.49887 L-42.5317,4.49886 L-42.5317,4.49886 L-42.5317,4.49887 L73.4416,4.49886 L73.4416,4.44716 L73.4416,4.44716 Z "
                  fill="#828282" fill-opacity="1.00"/>
            <path d="M141.87,1.1375 C142.499,-77.2154 79.4904,-141.242 1.1375,-141.87 C-77.2154,-142.499 -141.242,-79.4904 -141.87,-1.1375 C-142.499,77.2154 -79.4904,141.242 -1.1375,141.87 C77.2154,142.499 141.242,79.4904 141.87,1.1375 Z "
                  fill="#828282" fill-opacity="1.00"/>
            <path d="M138.078,-4.53012e-07 C138.078,-76.2581 76.2581,-138.078 -4.53012e-07,-138.078 C-76.2581,-138.078 -138.078,-76.2581 -138.078,4.53012e-07 C-138.078,76.2581 -76.2581,138.078 4.53012e-07,138.078 C76.2581,138.078 138.078,76.2581 138.078,-4.53012e-07 Z "
                  fill="#ffffff" fill-opacity="1.00"/>
            <defs>
                <filter id="raO2OoWE" x="-13.79%" y="-12.87%" width="141.00%" height="140.08%"
                        filterUnits="objectBoundingBox">
                    <feOffset dx="-0.12" dy="0.49" in="SourceAlpha" result="shadowOffsetOuter1"/>
                    <feGaussianBlur stdDeviation="4.48" in="shadowOffsetOuter1" result="shadowBlurOuter1"/>
                    <feFlood flood-color="#323232" flood-opacity="0.47"/>
                    <feComposite in2="shadowBlurOuter1" operator="in"/>
                    <feMerge>
                        <feMergeNode/>
                        <feMergeNode in="SourceGraphic"/>
                    </feMerge>
                </filter>
            </defs>
            <path d="M31.704,-63.5682 C31.704,-81.0778 17.5096,-95.2722 7.81597e-14,-95.2722 C-17.5096,-95.2722 -31.704,-81.0778 -31.704,-63.5682 C-31.704,-46.0586 -17.5096,-31.8642 7.81597e-14,-31.8642 C17.5096,-31.8642 31.704,-46.0586 31.704,-63.5682 Z "
                  fill="#ffffff" fill-opacity="1.00" stroke-width="2.52" stroke="#828282" stroke-linecap="square"
                  stroke-linejoin="miter" filter="url(#raO2OoWE)"/>
            <path d="M-31.4995,44.1839 L-28.9434,44.1839 L-28.9434,35.9022 L-31.4995,35.9022 L-31.4995,44.1839 Z M-31.704,33.295 C-31.704,33.704 -31.5591,34.0533 -31.2695,34.343 C-30.9798,34.6327 -30.6304,34.7775 -30.2215,34.7775 C-29.8125,34.7775 -29.4632,34.6327 -29.1735,34.343 C-28.8838,34.0533 -28.7389,33.704 -28.7389,33.295 C-28.7389,32.886 -28.8838,32.5367 -29.1735,32.247 C-29.4632,31.9573 -29.8125,31.8125 -30.2215,31.8125 C-30.6304,31.8125 -30.9798,31.9573 -31.2695,32.247 C-31.5591,32.5367 -31.704,32.886 -31.704,33.295 Z M-26.7793,44.1839 L-24.1209,44.1839 L-24.1209,38.9695 L-18.9576,38.9695 L-18.9576,44.1839 L-16.2993,44.1839 L-16.2993,32.1192 L-18.9576,32.1192 L-18.9576,36.6179 L-24.1209,36.6179 L-24.1209,32.1192 L-26.7793,32.1192 L-26.7793,44.1839 Z M-14.476,40.0431 C-14.476,40.702 -14.3567,41.2984 -14.1181,41.8323 C-13.8796,42.3663 -13.5529,42.8235 -13.1383,43.2041 C-12.7236,43.5847 -12.2351,43.8772 -11.6728,44.0817 C-11.1105,44.2862 -10.5112,44.3884 -9.87501,44.3884 C-9.23883,44.3884 -8.63957,44.2862 -8.07723,44.0817 C-7.51489,43.8772 -7.0264,43.5847 -6.61174,43.2041 C-6.19709,42.8235 -5.87048,42.3663 -5.63191,41.8323 C-5.39334,41.2984 -5.27406,40.702 -5.27406,40.0431 C-5.27406,39.3842 -5.39334,38.7878 -5.63191,38.2538 C-5.87048,37.7199 -6.19709,37.2626 -6.61174,36.8821 C-7.0264,36.5015 -7.51489,36.209 -8.07723,36.0045 C-8.63957,35.8 -9.23883,35.6977 -9.87501,35.6977 C-10.5112,35.6977 -11.1105,35.8 -11.6728,36.0045 C-12.2351,36.209 -12.7236,36.5015 -13.1383,36.8821 C-13.5529,37.2626 -13.8796,37.7199 -14.1181,38.2538 C-14.3567,38.7878 -14.476,39.3842 -14.476,40.0431 Z M-11.9199,40.0431 C-11.9199,39.4183 -11.741,38.9127 -11.3831,38.5265 C-11.0253,38.1402 -10.5226,37.9471 -9.87501,37.9471 C-9.22747,37.9471 -8.72478,38.1402 -8.36692,38.5265 C-8.00907,38.9127 -7.83015,39.4183 -7.83015,40.0431 C-7.83015,40.6679 -8.00907,41.1734 -8.36692,41.5597 C-8.72478,41.946 -9.22747,42.1391 -9.87501,42.1391 C-10.5226,42.1391 -11.0253,41.946 -11.3831,41.5597 C-11.741,41.1734 -11.9199,40.6679 -11.9199,40.0431 Z M-4.08122,40.0431 C-4.08122,40.702 -3.96193,41.2984 -3.72337,41.8323 C-3.4848,42.3663 -3.15819,42.8235 -2.74353,43.2041 C-2.32888,43.5847 -1.84038,43.8772 -1.27804,44.0817 C-0.715704,44.2862 -0.116444,44.3884 0.519738,44.3884 C1.15592,44.3884 1.75518,44.2862 2.31752,44.0817 C2.87986,43.8772 3.36835,43.5847 3.78301,43.2041 C4.19766,42.8235 4.52427,42.3663 4.76284,41.8323 C5.00141,41.2984 5.12069,40.702 5.12069,40.0431 C5.12069,39.3842 5.00141,38.7878 4.76284,38.2538 C4.52427,37.7199 4.19766,37.2626 3.78301,36.8821 C3.36835,36.5015 2.87986,36.209 2.31752,36.0045 C1.75518,35.8 1.15592,35.6977 0.519738,35.6977 C-0.116444,35.6977 -0.715704,35.8 -1.27804,36.0045 C-1.84038,36.209 -2.32888,36.5015 -2.74353,36.8821 C-3.15819,37.2626 -3.4848,37.7199 -3.72337,38.2538 C-3.96193,38.7878 -4.08122,39.3842 -4.08122,40.0431 Z M-1.52513,40.0431 C-1.52513,39.4183 -1.34621,38.9127 -0.988353,38.5265 C-0.630501,38.1402 -0.127804,37.9471 0.519738,37.9471 C1.16728,37.9471 1.66998,38.1402 2.02783,38.5265 C2.38568,38.9127 2.56461,39.4183 2.56461,40.0431 C2.56461,40.6679 2.38568,41.1734 2.02783,41.5597 C1.66998,41.946 1.16728,42.1391 0.519738,42.1391 C-0.127804,42.1391 -0.630501,41.946 -0.988353,41.5597 C-1.34621,41.1734 -1.52513,40.6679 -1.52513,40.0431 Z M9.17635,44.1839 L11.8858,44.1839 L15.1576,35.9022 L12.5845,35.9022 L10.6418,41.5256 L10.6078,41.5256 L8.51177,35.9022 L5.75119,35.9022 L9.17635,44.1839 Z M22.1442,41.4404 C21.9284,41.7358 21.6756,41.9772 21.3859,42.1646 C21.0962,42.3521 20.7412,42.4458 20.3209,42.4458 C19.821,42.4458 19.4007,42.301 19.0599,42.0113 C18.7191,41.7216 18.4975,41.3325 18.3953,40.844 L24.3254,40.844 L24.3254,40.0431 C24.3254,39.3842 24.2345,38.7878 24.0528,38.2538 C23.871,37.7199 23.6126,37.2626 23.2774,36.8821 C22.9423,36.5015 22.5333,36.209 22.0505,36.0045 C21.5677,35.8 21.0309,35.6977 20.4402,35.6977 C19.804,35.6977 19.2047,35.8 18.6424,36.0045 C18.0801,36.209 17.5916,36.5015 17.1769,36.8821 C16.7622,37.2626 16.4356,37.7199 16.1971,38.2538 C15.9585,38.7878 15.8392,39.3842 15.8392,40.0431 C15.8392,40.702 15.9585,41.2984 16.1971,41.8323 C16.4356,42.3663 16.7622,42.8235 17.1769,43.2041 C17.5916,43.5847 18.0801,43.8772 18.6424,44.0817 C19.2047,44.2862 19.804,44.3884 20.4402,44.3884 C21.1104,44.3884 21.758,44.2464 22.3828,43.9624 C23.0076,43.6784 23.5245,43.2751 23.9335,42.7525 L22.1442,41.4404 Z M18.3953,39.1059 C18.4067,38.9014 18.4549,38.7054 18.5401,38.518 C18.6254,38.3305 18.7446,38.1658 18.898,38.0238 C19.0514,37.8818 19.236,37.7653 19.4518,37.6744 C19.6677,37.5836 19.9176,37.5381 20.2016,37.5381 C20.6674,37.5381 21.048,37.6915 21.3433,37.9982 C21.6387,38.3049 21.7807,38.6742 21.7693,39.1059 L18.3953,39.1059 Z M25.8761,44.1839 L28.4322,44.1839 L28.4322,40.7247 C28.4322,40.3157 28.4549,39.9408 28.5004,39.6 C28.5458,39.2592 28.6452,38.9667 28.7986,38.7224 C28.9519,38.4782 29.1706,38.2879 29.4546,38.1516 C29.7386,38.0153 30.1249,37.9471 30.6134,37.9471 C30.8065,37.9471 30.9911,37.9613 31.1672,37.9897 C31.3433,38.0181 31.5222,38.0607 31.704,38.1175 L31.704,35.7829 C31.579,35.7489 31.4427,35.7261 31.295,35.7148 C31.1473,35.7034 30.9997,35.6977 30.852,35.6977 C30.2839,35.6977 29.8125,35.8255 29.4376,36.0812 C29.0627,36.3368 28.7389,36.7202 28.4663,37.2314 L28.4322,37.2314 L28.4322,35.9022 L25.8761,35.9022 L25.8761,44.1839 Z "
                  fill="#828282" fill-opacity="1.00"/>
            <path d="M-6.39455,63.7743 L-3.57029,63.7743 L-0.159864,55.1417 L-2.84202,55.1417 L-4.86696,61.0033 L-4.90249,61.0033 L-7.08729,55.1417 L-9.96484,55.1417 L-6.39455,63.7743 Z M5.79062,63.7743 L8.34844,63.7743 L8.34844,61.252 L9.96484,61.252 L9.96484,59.0139 L8.34844,59.0139 L8.34844,51.1984 L5.43537,51.1984 L0.301965,59.0139 L0.301965,61.252 L5.79062,61.252 L5.79062,63.7743 Z M5.79062,59.0139 L2.96636,59.0139 L5.75509,54.6798 L5.79062,54.6798 L5.79062,59.0139 Z "
                  fill="#484848" fill-opacity="1.00"/>
        </g>
    </g>
</svg>